<svg width="48" height="48" viewBox="0 0 48 48" fill="none" xmlns="http://www.w3.org/2000/svg">
<rect width="48" height="48" rx="24" fill="#ECECEC"/>
<path d="M24.1603 25.04C24.067 25.0266 23.947 25.0266 23.8403 25.04C21.4936 24.96 19.627 23.04 19.627 20.68C19.627 18.2666 21.5736 16.3066 24.0003 16.3066C26.4136 16.3066 28.3736 18.2666 28.3736 20.68C28.3603 23.04 26.507 24.96 24.1603 25.04Z" stroke="#0E0E0E" stroke-width="2" stroke-linecap="round" stroke-linejoin="round"/>
<path d="M32.9865 33.8401C30.6132 36.0134 27.4665 37.3334 23.9999 37.3334C20.5332 37.3334 17.3865 36.0134 15.0132 33.8401C15.1465 32.5867 15.9465 31.3601 17.3732 30.4001C21.0265 27.9734 26.9998 27.9734 30.6265 30.4001C32.0532 31.3601 32.8532 32.5867 32.9865 33.8401Z" stroke="#0E0E0E" stroke-width="2" stroke-linecap="round" stroke-linejoin="round"/>
<path d="M23.9998 37.3334C31.3636 37.3334 37.3332 31.3639 37.3332 24.0001C37.3332 16.6363 31.3636 10.6667 23.9998 10.6667C16.636 10.6667 10.6665 16.6363 10.6665 24.0001C10.6665 31.3639 16.636 37.3334 23.9998 37.3334Z" stroke="#0E0E0E" stroke-width="2" stroke-linecap="round" stroke-linejoin="round"/>
</svg>
