<svg width="36" height="36" viewBox="0 0 36 36" fill="none" xmlns="http://www.w3.org/2000/svg">
<rect width="36" height="36" fill="#F5F5F5"/>
<g id="CSC Agent Portal - Dashboard" clip-path="url(#clip0_16166_17145)">
<rect width="1440" height="1243" transform="translate(-27 -22)" fill="#F5F5F5"/>
<g id="Group 37319">
<g id="Frame 2152">
<rect width="256" height="80" transform="translate(-27 -22)" fill="#0E0E0E"/>
<g id="Frame 48097463">
<g id="Frame 48097461">
<path id="path14" fill-rule="evenodd" clip-rule="evenodd" d="M6.87476 36L23.0858 26.5995C23.4444 27.5856 23.6781 28.5413 23.6975 29.2669C23.4555 29.5768 23.388 30.0126 23.5595 30.3965L30.5096 27.1424C30.3407 26.7647 29.9829 26.5332 29.602 26.5116L29.3627 26.1786C27.7866 24.1652 26.9953 22.3953 26.5377 19.8582L26.4479 19.4553C26.681 19.1463 26.7441 18.7177 26.5751 18.3401L19.625 21.594C19.7964 21.9776 20.1629 22.2104 20.5503 22.2256C21.1017 22.7409 21.6862 23.6067 22.2 24.5901L6.09412 32.4802L8.25079 30.964C10.9321 24.2915 13.6942 17.4026 16.1505 10.6541C16.3429 10.1255 16.4792 10.2602 16.6298 10.6541C18.0161 14.2831 18.7224 15.819 19.3032 17.4548L24.3101 15.066C21.8815 8.83841 19.1697 2.75293 18.6086 1.42733C18.2128 0.492237 17.8242 0 17.5193 0C17.1271 0 16.7649 0.623898 16.2566 1.9232L4.84297 31.0943C3.97921 33.3022 3.22864 34.7259 1.29898 35.0814H0.448795C0.201948 35.0814 0 35.288 0 35.5405V36H0.611689H6.87476Z" fill="white"/>
<path id="path16" fill-rule="evenodd" clip-rule="evenodd" d="M31.9139 28.1011V28.1013C32.1563 28.6434 31.921 29.2899 31.3911 29.5381L24.7542 32.6454C24.2244 32.8935 23.5927 32.6529 23.3504 32.1106C23.108 31.5684 23.3431 30.9218 23.8729 30.6739L30.51 27.5664C31.0397 27.3184 31.6714 27.5591 31.9139 28.1011Z" fill="white"/>
<path id="path18" fill-rule="evenodd" clip-rule="evenodd" d="M26.7848 16.626C26.5426 16.0838 25.9108 15.8431 25.381 16.091L18.7441 19.1985C18.2143 19.4465 17.9791 20.093 18.2214 20.6353C18.4639 21.1775 19.0956 21.4182 19.6252 21.17L26.2623 18.0627C26.7921 17.8148 27.0273 17.1683 26.7848 16.626Z" fill="white"/>
<path id="path20" fill-rule="evenodd" clip-rule="evenodd" d="M23.7715 33.9011H34.5006C34.7476 33.9011 34.9496 34.1078 34.9496 34.3604V34.755H35.3915C35.726 34.755 35.9998 35.0352 35.9998 35.3774V36H22.2725V35.3774C22.2725 35.0352 22.546 34.755 22.8806 34.755H23.3227V34.3604C23.3227 34.1078 23.5247 33.9011 23.7715 33.9011Z" fill="white"/>
</g>
</g>
</g>
</g>
</g>
<defs>
<clipPath id="clip0_16166_17145">
<rect width="1440" height="1243" fill="white" transform="translate(-27 -22)"/>
</clipPath>
</defs>
</svg>
