<svg width="16" height="16" viewBox="0 0 16 16" fill="none" xmlns="http://www.w3.org/2000/svg">
<path d="M11.1292 9.87916H10.4709L10.2375 9.65416C11.0542 8.70416 11.5459 7.47083 11.5459 6.12916C11.5459 3.13749 9.12086 0.712494 6.12919 0.712494C3.13752 0.712494 0.712524 3.13749 0.712524 6.12916C0.712524 9.12083 3.13752 11.5458 6.12919 11.5458C7.47086 11.5458 8.70419 11.0542 9.65419 10.2375L9.87919 10.4708V11.1292L14.0459 15.2875L15.2875 14.0458L11.1292 9.87916ZM6.12919 9.87916C4.05419 9.87916 2.37919 8.20416 2.37919 6.12916C2.37919 4.05416 4.05419 2.37916 6.12919 2.37916C8.20419 2.37916 9.87919 4.05416 9.87919 6.12916C9.87919 8.20416 8.20419 9.87916 6.12919 9.87916Z" fill="#7A7A7A"/>
</svg>
